<?xml version="1.0" encoding="UTF-8"?>
<svg width="51px" height="52px" viewBox="0 0 51 52" version="1.1" xmlns="http://www.w3.org/2000/svg" xmlns:xlink="http://www.w3.org/1999/xlink">
    <title>形状结合</title>
    <g id="05.BTFS-Storage3" stroke="none" stroke-width="1" fill="none" fill-rule="evenodd">
        <g id="MetaMask" transform="translate(-695.000000, -366.000000)" fill="#000000" fill-rule="nonzero">
            <path d="M708.565091,368.984515 C715.335954,365.349141 723.356538,365.018106 730.394233,368.083556 C738.15279,371.391149 743.798516,378.39625 745.469704,386.788889 C746.167841,390.242408 746.176742,393.803587 745.495876,397.260678 C744.793645,400.577413 743.488787,403.731339 741.648491,406.560053 C738.866519,410.724185 734.969744,413.988579 730.420405,415.966011 C725.665113,417.989341 720.42404,418.518282 715.371107,417.48482 C712.113259,416.769896 709.015329,415.441452 706.236837,413.567891 C702.146637,410.735634 698.9402,406.768425 696.997877,402.136855 C695.01047,397.295609 694.49092,391.959802 695.506033,386.815535 C696.995997,379.171461 701.794227,372.61989 708.565091,368.984515 Z M721.757244,376.023997 L721.076754,376.023997 C718.419565,376.082602 715.801741,376.689964 713.381982,377.809264 C709.711314,379.592739 706.688316,382.511833 704.744994,386.149391 C703.552587,388.391404 702.82229,390.857637 702.598833,393.397041 L702.520315,394.569455 L702.520315,395.262245 C702.577879,397.967464 703.174458,400.632606 704.273885,403.096102 C704.928203,404.56162 706.105974,406.719928 707.859544,408.34532 C711.438292,411.218204 715.864985,412.776774 720.422437,412.768551 L721.495517,412.768551 L721.809589,412.741872 L721.835762,412.741872 L722.123662,412.715227 L722.20218,412.715227 L722.437734,412.688581 L722.516252,412.688581 L722.777979,412.661935 L722.830324,412.661935 L723.144397,412.635289 L723.432296,412.581998 L723.484642,412.581998 L723.720196,412.555352 L723.772541,412.555352 L724.060441,412.50206 L724.662413,412.368832 L724.714758,412.368832 L724.976485,412.31554 L725.002658,412.31554 L725.60463,412.155665 C723.092051,412.235603 721.050581,411.889208 719.768119,411.596104 C716.856284,411.01806 714.125883,409.728766 711.811621,407.83905 C708.091471,404.688008 705.95838,400.002337 706.001283,395.075725 C706.020315,391.446269 707.289197,387.938584 709.586942,385.163497 C712.474225,381.692732 716.688566,379.654251 721.155272,379.567885 L721.757244,379.567885 L721.757244,376.023997 Z M717.072332,381.353151 C712.33493,382.915697 708.711317,386.836004 707.466954,391.745003 C706.134124,396.760496 707.440585,402.121101 710.921749,405.920554 C712.244039,407.331808 713.792967,408.503238 715.501971,409.384505 C717.597093,410.392779 719.844845,411.032444 722.149834,411.276355 C723.720196,411.489521 725.814011,411.542813 727.044128,411.542813 L729.137943,410.716794 C729.635225,410.476982 730.132506,410.23717 730.629787,409.944066 L732.043112,409.03811 L732.252494,408.878235 C729.373498,409.411151 728.640662,409.384505 726.599192,409.331213 C725.395248,409.304568 723.903405,409.118047 722.751806,408.904881 C717.360232,407.918987 712.727665,404.56162 711.02644,399.498923 C709.528888,395.168572 710.682906,390.346461 713.969142,387.202717 C717.255378,384.058973 722.054451,383.186121 726.206602,384.976977 L727.672273,381.80613 L726.337465,381.29986 C723.316535,380.351693 720.082546,380.370294 717.072332,381.353151 Z M717.857513,385.882933 C713.904597,387.551816 711.338331,391.491863 711.366453,395.848452 C711.372672,397.336653 711.684717,398.807085 712.282729,400.165067 C712.832356,401.390773 713.591364,402.536541 714.559754,403.602372 C716.361185,405.527229 718.598906,406.972814 721.076754,407.812404 C725.036334,408.919515 729.195801,409.065537 733.220883,408.238737 C734.38179,407.30563 735.435385,406.24193 736.361607,405.06789 L733.037675,405.387639 C732.226321,405.44093 731.074723,405.520868 729.766088,405.520868 C727.436718,405.520868 724.583895,405.307702 722.149834,404.481683 C718.380967,403.202686 714.82148,399.925255 714.821481,395.875098 C714.821436,392.553506 717.023694,389.650529 720.180398,388.811066 C723.337103,387.971604 726.652529,389.407264 728.248072,392.304564 L731.362622,390.732464 C728.802626,385.765203 722.912037,383.64996 717.857513,385.882933 Z" id="形状结合"></path>
        </g>
    </g>
</svg>