<?xml version="1.0" standalone="yes"?>
<svg xmlns="http://www.w3.org/2000/svg" width="275" height="183">
<path style="fill:#ffa103; stroke:none;" d="M0 0L0 183L275 183L275 0L0 0z"/>
<path style="fill:#feae2e; stroke:none;" d="M129.667 45.3333L130.333 45.6667L129.667 45.3333z"/>
<path style="fill:#fdbf61; stroke:none;" d="M131 45L131 46L134 46L131 45z"/>
<path style="fill:#feae2e; stroke:none;" d="M134 45L135 46L134 45M126 46L127 47L126 46z"/>
<path style="fill:#fddaa5; stroke:none;" d="M127 46L128 47L127 46z"/>
<path style="fill:#fdfbf6; stroke:none;" d="M128.005 46.7423C118.523 50.4122 123.636 59.283 119.972 65.8951C117.986 69.4788 113.184 70.2376 111.603 74.1049C108.593 81.4709 110.999 94.0787 111 102C111 104.868 110.337 108.875 112.028 111.39C115.937 117.209 127.039 120.965 133 124.424C138.743 127.758 147.037 135.316 154 132.621C157.306 131.342 162.125 128.952 163.972 125.79C167.43 119.872 166.992 95.4546 164.397 89.1049C162.55 84.5859 156.626 84.0466 155.318 78.9846C154.155 74.4836 155.226 69.6038 154.1 65C151.625 54.8747 139.63 42.2426 128.005 46.7423z"/>
<path style="fill:#fddaa5; stroke:none;" d="M136 46L137 47L136 46z"/>
<path style="fill:#fdbf61; stroke:none;" d="M137 46L138 47L137 46z"/>
<path style="fill:#feae2e; stroke:none;" d="M138 46L139 47L138 46z"/>
<path style="fill:#fddaa5; stroke:none;" d="M125 47L126 48L125 47M139 47L140 48L139 47z"/>
<path style="fill:#feae2e; stroke:none;" d="M140 47L141 48L140 47z"/>
<path style="fill:#fddaa5; stroke:none;" d="M124 48L125 49L124 48M130 48L130 49L134 49L130 48M141 48L142 49L141 48z"/>
<path style="fill:#feae2e; stroke:none;" d="M142 48L143 49L142 48z"/>
<path style="fill:#fddaa5; stroke:none;" d="M123 49L124 50L123 49M127 49L128 50L127 49z"/>
<path style="fill:#feae2e; stroke:none;" d="M128 49L129 50L128 49z"/>
<path style="fill:#ffa103; stroke:none;" d="M129 49L129 50L136 50L129 49z"/>
<path style="fill:#fdbf61; stroke:none;" d="M136.333 49.6667L136.667 50.3333L136.333 49.6667z"/>
<path style="fill:#fddaa5; stroke:none;" d="M137 49L138 50L137 49z"/>
<path style="fill:#fdbf61; stroke:none;" d="M143 49L144 50L143 49M122 50L123 51L122 50M126 50L125 52L126 50z"/>
<path style="fill:#ffa103; stroke:none;" d="M127 50L125 53L127 50z"/>
<path style="fill:#fdbf61; stroke:none;" d="M128 50L129 51L128 50z"/>
<path style="fill:#fddaa5; stroke:none;" d="M129 50L130 51L129 50M135 50L136 51L135 50z"/>
<path style="fill:#ffa103; stroke:none;" d="M137 50L138 51L137 50z"/>
<path style="fill:#feae2e; stroke:none;" d="M138 50L139 51L138 50z"/>
<path style="fill:#fddaa5; stroke:none;" d="M139 50L140 51L139 50M144 50L145 51L144 50M127 51L128 52L127 51z"/>
<path style="fill:#fdbf61; stroke:none;" d="M138 51L139 52L138 51z"/>
<path style="fill:#ffa103; stroke:none;" d="M139 51L140 52L139 51z"/>
<path style="fill:#feae2e; stroke:none;" d="M140 51L141 52L140 51z"/>
<path style="fill:#fddaa5; stroke:none;" d="M141 51L142 52L141 51z"/>
<path style="fill:#feae2e; stroke:none;" d="M146 51L147 52L146 51z"/>
<path style="fill:#fdbf61; stroke:none;" d="M121 52L122 53L121 52z"/>
<path style="fill:#fddaa5; stroke:none;" d="M124 52L125 53L124 52M126 52L127 53L126 52z"/>
<path style="fill:#fdbf61; stroke:none;" d="M140 52L141 53L140 52z"/>
<path style="fill:#ffa103; stroke:none;" d="M141 52L144 55L141 52z"/>
<path style="fill:#fdbf61; stroke:none;" d="M142 52L143 53L142 52z"/>
<path style="fill:#feae2e; stroke:none;" d="M147 52L148 53L147 52z"/>
<path style="fill:#fddaa5; stroke:none;" d="M121 53L122 54L121 53z"/>
<path style="fill:#fdbf61; stroke:none;" d="M124 53L125 54L124 53z"/>
<path style="fill:#feae2e; stroke:none;" d="M125 53L126 54L125 53z"/>
<path style="fill:#fdbf61; stroke:none;" d="M129 53L130 54L129 53z"/>
<path style="fill:#ffa103; stroke:none;" d="M147 77C147 72.9002 147.746 67.8936 146.258 64C144.408 59.1587 137.727 52.7322 132.059 53.5031C126.859 54.2103 126.917 63.2251 129.603 66.3904C131.235 68.3129 133.852 69.4911 136 70.7191C139.667 72.8151 143.273 75.0161 147 77z"/>
<path style="fill:#feae2e; stroke:none;" d="M134 53L135 54L134 53z"/>
<path style="fill:#fdbf61; stroke:none;" d="M135 53L136 54L135 53z"/>
<path style="fill:#fddaa5; stroke:none;" d="M141 53L142 54L141 53z"/>
<path style="fill:#feae2e; stroke:none;" d="M143 53L144 54L143 53M148 53L149 54L148 53z"/>
<path style="fill:#ffa103; stroke:none;" d="M124 54L124 73L125 73L124 54z"/>
<path style="fill:#fddaa5; stroke:none;" d="M125 54L126 55L125 54M128 54L129 55L128 54z"/>
<path style="fill:#fdbf61; stroke:none;" d="M137 54L138 55L137 54z"/>
<path style="fill:#fddaa5; stroke:none;" d="M142 54L143 55L142 54z"/>
<path style="fill:#feae2e; stroke:none;" d="M144 54L147 57L147 56L144 54M120 55L120 67L121 67L120 55z"/>
<path style="fill:#fddaa5; stroke:none;" d="M123 55L123 73L124 73L123 55M139 55L140 56L139 55z"/>
<path style="fill:#ffa103; stroke:none;" d="M145 55L146 56L145 55z"/>
<path style="fill:#fddaa5; stroke:none;" d="M149 55L150 56L149 55z"/>
<path style="fill:#fdbf61; stroke:none;" d="M140 56L141 57L140 56z"/>
<path style="fill:#fddaa5; stroke:none;" d="M150 56L151 57L150 56z"/>
<path style="fill:#feae2e; stroke:none;" d="M141 57L142 58L141 57z"/>
<path style="fill:#ffa103; stroke:none;" d="M146 57L149 62L150 62L146 57z"/>
<path style="fill:#fdbf61; stroke:none;" d="M147 57L148 58L147 57M151 57L152 58L151 57z"/>
<path style="fill:#feae2e; stroke:none;" d="M142 58L143 59L142 58z"/>
<path style="fill:#fddaa5; stroke:none;" d="M146 58L147 59L146 58M148 58L149 59L148 58z"/>
<path style="fill:#feae2e; stroke:none;" d="M143 59L144 60L143 59z"/>
<path style="fill:#fdbf61; stroke:none;" d="M147 59L148 60L147 59M152 59L153 60L152 59M144 60L145 61L144 60M149 60L150 61L149 60z"/>
<path style="fill:#fddaa5; stroke:none;" d="M145 61L146 62L145 61M148 61L149 62L148 61M150 61L151 62L150 61z"/>
<path style="fill:#fdbf61; stroke:none;" d="M153 61L154 62L153 61z"/>
<path style="fill:#feae2e; stroke:none;" d="M149 62L150 63L149 62z"/>
<path style="fill:#fdbf61; stroke:none;" d="M150 62L151 63L150 62z"/>
<path style="fill:#fddaa5; stroke:none;" d="M153 62L154 63L153 62M146 63L147 64L146 63M149 63L150 64L149 63z"/>
<path style="fill:#ffa103; stroke:none;" d="M150.333 63.6667L150.667 64.3333L150.333 63.6667z"/>
<path style="fill:#feae2e; stroke:none;" d="M154 63L155 64L154 63z"/>
<path style="fill:#fddaa5; stroke:none;" d="M151 64L152 65L151 64z"/>
<path style="fill:#fdbf61; stroke:none;" d="M154 64L155 65L154 64z"/>
<path style="fill:#fddaa5; stroke:none;" d="M147.333 65.6667L147.667 66.3333L147.333 65.6667z"/>
<path style="fill:#feae2e; stroke:none;" d="M150 65L151 66L150 65z"/>
<path style="fill:#fdbf61; stroke:none;" d="M151 65L152 66L151 65z"/>
<path style="fill:#fddaa5; stroke:none;" d="M154.333 65.6667L154.667 66.3333L154.333 65.6667z"/>
<path style="fill:#fdbf61; stroke:none;" d="M128 66L129 67L128 66z"/>
<path style="fill:#fddaa5; stroke:none;" d="M150 66L150 88L151 88L150 66z"/>
<path style="fill:#ffa103; stroke:none;" d="M151 66L151 87L152 87L151 66z"/>
<path style="fill:#fdbf61; stroke:none;" d="M119 67L120 68L119 67M130 67L131 68L130 67M147 67L148 68L147 67z"/>
<path style="fill:#feae2e; stroke:none;" d="M117 68L118 69L117 68z"/>
<path style="fill:#fddaa5; stroke:none;" d="M118 68L119 69L118 68M131 68L132 69L131 68z"/>
<path style="fill:#feae2e; stroke:none;" d="M132 68L133 69L132 68M147 68L147 77L148 77L147 68M115 69L116 70L115 69z"/>
<path style="fill:#fddaa5; stroke:none;" d="M116 69L117 70L116 69M128 69L129 70L128 69M133 69L134 70L133 69z"/>
<path style="fill:#fdbf61; stroke:none;" d="M114 70L115 71L114 70z"/>
<path style="fill:#fddaa5; stroke:none;" d="M120 70L121 71L120 70z"/>
<path style="fill:#ffa103; stroke:none;" d="M128 70C127.018 76.1531 122.857 76.0742 120 71L116 74C129.475 82.2473 144.778 96.1036 160 89L160 88L155 86C154.343 88.1583 153.188 91.1589 150.209 89.8241C146.617 88.2148 147.607 83.2046 145.397 80.5293C141.525 75.8401 133.325 72.8046 128 70z"/>
<path style="fill:#fdbf61; stroke:none;" d="M129 70L130 71L129 70M135 70L136 71L135 70M112 71L113 72L112 71z"/>
<path style="fill:#fddaa5; stroke:none;" d="M118 71L119 72L118 71z"/>
<path style="fill:#feae2e; stroke:none;" d="M120.333 71.6667L120.667 72.3333L120.333 71.6667M130 71L131 72L130 71z"/>
<path style="fill:#fddaa5; stroke:none;" d="M131 71L132 72L131 71M136 71L137 72L136 71z"/>
<path style="fill:#fdbf61; stroke:none;" d="M137 71L138 72L137 71z"/>
<path style="fill:#fddaa5; stroke:none;" d="M111 72L112 73L111 72M116 72L117 73L116 72z"/>
<path style="fill:#feae2e; stroke:none;" d="M117 72L118 73L117 72M132 72L133 73L132 72z"/>
<path style="fill:#fddaa5; stroke:none;" d="M133 72L134 73L133 72M138 72L139 73L138 72z"/>
<path style="fill:#feae2e; stroke:none;" d="M139 72L140 73L139 72z"/>
<path style="fill:#fdbf61; stroke:none;" d="M110 73L110 111L111 111C111 100.089 114.211 83.0359 110 73M115 73L116 74L115 73z"/>
<path style="fill:#fddaa5; stroke:none;" d="M127 73L128 74L127 73z"/>
<path style="fill:#fdbf61; stroke:none;" d="M134 73L135 74L134 73z"/>
<path style="fill:#fddaa5; stroke:none;" d="M140 73L141 74L140 73M116 74L117 75L116 74z"/>
<path style="fill:#fdbf61; stroke:none;" d="M121 74L122 75L121 74M127 74L128 75L127 74z"/>
<path style="fill:#fddaa5; stroke:none;" d="M136 74L137 75L136 74z"/>
<path style="fill:#fdbf61; stroke:none;" d="M142 74L143 75L142 74M118 75L119 76L118 75M122 75L123 76L122 75z"/>
<path style="fill:#fddaa5; stroke:none;" d="M125 75L126 76L125 75z"/>
<path style="fill:#fdbf61; stroke:none;" d="M126 75L127 76L126 75z"/>
<path style="fill:#feae2e; stroke:none;" d="M137 75L138 76L137 75z"/>
<path style="fill:#fddaa5; stroke:none;" d="M138 75L139 76L138 75M143 75L144 76L143 75z"/>
<path style="fill:#fdbf61; stroke:none;" d="M144 75L145 76L144 75z"/>
<path style="fill:#fddaa5; stroke:none;" d="M113 76L114 111L115 111C112.586 100.862 112.586 86.1384 115 76L113 76M119 76L120 77L119 76z"/>
<path style="fill:#feae2e; stroke:none;" d="M120 76L121 77L120 76M139 76L140 77L139 76z"/>
<path style="fill:#fddaa5; stroke:none;" d="M140 76L141 77L140 76M145 76L146 77L145 76z"/>
<path style="fill:#ffa103; stroke:none;" d="M114 77L114.603 108.787L124 115.8L149 130L148.397 98.1852L139 91L114 77z"/>
<path style="fill:#feae2e; stroke:none;" d="M115 77L116 78L115 77z"/>
<path style="fill:#fddaa5; stroke:none;" d="M116 77L117 78L116 77M121 77L122 78L121 77z"/>
<path style="fill:#fdbf61; stroke:none;" d="M141 77L142 78L141 77z"/>
<path style="fill:#fddaa5; stroke:none;" d="M147 77L148 78L147 77z"/>
<path style="fill:#fdbf61; stroke:none;" d="M117 78L118 79L117 78z"/>
<path style="fill:#fddaa5; stroke:none;" d="M123 78L124 79L123 78M143 78L144 79L143 78M119 79L120 80L119 79z"/>
<path style="fill:#fdbf61; stroke:none;" d="M125 79L126 80L125 79z"/>
<path style="fill:#feae2e; stroke:none;" d="M144 79L145 80L144 79z"/>
<path style="fill:#fddaa5; stroke:none;" d="M145 79L146 80L145 79z"/>
<path style="fill:#feae2e; stroke:none;" d="M120 80L121 81L120 80z"/>
<path style="fill:#fddaa5; stroke:none;" d="M121 80L122 81L121 80M126 80L127 81L126 80z"/>
<path style="fill:#feae2e; stroke:none;" d="M127 80L128 81L127 80z"/>
<path style="fill:#fdbf61; stroke:none;" d="M146 80L147 81L146 80z"/>
<path style="fill:#feae2e; stroke:none;" d="M122 81L123 82L122 81z"/>
<path style="fill:#fddaa5; stroke:none;" d="M128 81L129 82L128 81z"/>
<path style="fill:#feae2e; stroke:none;" d="M147 81L147 88L148 88L147 81z"/>
<path style="fill:#fdbf61; stroke:none;" d="M124 82L125 83L124 82M130 82L131 83L130 82M156 82L157 83L156 82z"/>
<path style="fill:#fddaa5; stroke:none;" d="M126 83L127 84L126 83z"/>
<path style="fill:#fdbf61; stroke:none;" d="M132 83L133 84L132 83z"/>
<path style="fill:#fddaa5; stroke:none;" d="M157 83L158 84L157 83z"/>
<path style="fill:#feae2e; stroke:none;" d="M158 83L159 84L158 83M127 84L128 85L127 84z"/>
<path style="fill:#fddaa5; stroke:none;" d="M128 84L129 85L128 84M133 84L134 85L133 84z"/>
<path style="fill:#feae2e; stroke:none;" d="M134 84L135 85L134 84z"/>
<path style="fill:#fddaa5; stroke:none;" d="M159 84L160 85L159 84z"/>
<path style="fill:#fdbf61; stroke:none;" d="M129 85L130 86L129 85z"/>
<path style="fill:#fddaa5; stroke:none;" d="M135 85L136 86L135 85z"/>
<path style="fill:#fdbf61; stroke:none;" d="M155 85L156 86L155 85M161 85L162 86L161 85z"/>
<path style="fill:#fddaa5; stroke:none;" d="M131 86L132 87L131 86z"/>
<path style="fill:#fdbf61; stroke:none;" d="M137 86L138 87L137 86z"/>
<path style="fill:#fddaa5; stroke:none;" d="M157 86L158 87L157 86z"/>
<path style="fill:#fdbf61; stroke:none;" d="M163 86L164 87L163 86z"/>
<path style="fill:#feae2e; stroke:none;" d="M132 87L133 88L132 87z"/>
<path style="fill:#fddaa5; stroke:none;" d="M133 87L134 88L133 87M138 87L139 88L138 87z"/>
<path style="fill:#fdbf61; stroke:none;" d="M139 87L140 88L139 87z"/>
<path style="fill:#feae2e; stroke:none;" d="M151 87L152 88L151 87M158 87L159 88L158 87z"/>
<path style="fill:#fddaa5; stroke:none;" d="M159 87L160 88L159 87M164 87L165 88L164 87z"/>
<path style="fill:#feae2e; stroke:none;" d="M134 88L135 89L134 88z"/>
<path style="fill:#fddaa5; stroke:none;" d="M135 88L136 89L135 88M140 88L141 89L140 88z"/>
<path style="fill:#feae2e; stroke:none;" d="M141 88L142 89L141 88z"/>
<path style="fill:#fddaa5; stroke:none;" d="M154 88L155 89L154 88M160 88L161 89L160 88z"/>
<path style="fill:#feae2e; stroke:none;" d="M165 88L165 126L166 126C166 115.089 169.211 98.036 165 88z"/>
<path style="fill:#fdbf61; stroke:none;" d="M136 89L137 90L136 89z"/>
<path style="fill:#fddaa5; stroke:none;" d="M142 89L143 90L142 89z"/>
<path style="fill:#fdbf61; stroke:none;" d="M148 89L149 90L148 89z"/>
<path style="fill:#feae2e; stroke:none;" d="M154 89L155 90L154 89M158 89L159 90L158 89z"/>
<path style="fill:#fddaa5; stroke:none;" d="M159 89L160 90L159 89M138 90L139 91L138 90z"/>
<path style="fill:#fdbf61; stroke:none;" d="M144 90L145 91L144 90M149 90L150 91L149 90z"/>
<path style="fill:#fddaa5; stroke:none;" d="M150 90L151 91L150 90M152 90L153 91L152 90z"/>
<path style="fill:#feae2e; stroke:none;" d="M153 90L154 91L153 90M156 90L157 91L156 90z"/>
<path style="fill:#fddaa5; stroke:none;" d="M157 90L158 91L157 90z"/>
<path style="fill:#feae2e; stroke:none;" d="M139 91L140 92L139 91z"/>
<path style="fill:#fddaa5; stroke:none;" d="M140 91L141 92L140 91M145 91L146 92L145 91z"/>
<path style="fill:#fdbf61; stroke:none;" d="M146 91L147 92L146 91z"/>
<path style="fill:#fddaa5; stroke:none;" d="M155 91L156 92L155 91z"/>
<path style="fill:#fdbf61; stroke:none;" d="M161 91L162 92L161 91z"/>
<path style="fill:#fddaa5; stroke:none;" d="M162 91L163 92L162 91z"/>
<path style="fill:#fdbf61; stroke:none;" d="M141 92L142 93L141 92z"/>
<path style="fill:#fddaa5; stroke:none;" d="M142 92L143 93L142 92M147 92L148 93L147 92z"/>
<path style="fill:#feae2e; stroke:none;" d="M148 92L149 93L148 92z"/>
<path style="fill:#fdbf61; stroke:none;" d="M153 92L154 93L153 92z"/>
<path style="fill:#fddaa5; stroke:none;" d="M159 92L162 95L159 92z"/>
<path style="fill:#ffa103; stroke:none;" d="M160 92L161 93L160 92z"/>
<path style="fill:#feae2e; stroke:none;" d="M161 92L162 93L161 92z"/>
<path style="fill:#fdbf61; stroke:none;" d="M143 93L144 94L143 93z"/>
<path style="fill:#fddaa5; stroke:none;" d="M149 93L150 94L149 93z"/>
<path style="fill:#feae2e; stroke:none;" d="M151 93L152 94L151 93z"/>
<path style="fill:#fddaa5; stroke:none;" d="M152 93L153 94L152 93M157 93L160 96L157 93z"/>
<path style="fill:#feae2e; stroke:none;" d="M158 93L159 94L158 93z"/>
<path style="fill:#ffa103; stroke:none;" d="M159 93L160 94L159 93z"/>
<path style="fill:#fddaa5; stroke:none;" d="M145 94L146 95L145 94z"/>
<path style="fill:#fdbf61; stroke:none;" d="M156.333 94.6667L156.667 95.3333L156.333 94.6667z"/>
<path style="fill:#ffa103; stroke:none;" d="M157 94L158 95L157 94z"/>
<path style="fill:#fdfbf6; stroke:none;" d="M159.667 94.3333L160.333 94.6667L159.667 94.3333z"/>
<path style="fill:#feae2e; stroke:none;" d="M146 95L147 96L146 95z"/>
<path style="fill:#fddaa5; stroke:none;" d="M147 95L148 96L147 95z"/>
<path style="fill:#fdbf61; stroke:none;" d="M154 95L155 96L154 95z"/>
<path style="fill:#ffa103; stroke:none;" d="M155 95L156 96L155 95z"/>
<path style="fill:#fdfbf6; stroke:none;" d="M154 97L154 98L159 96L154 97z"/>
<path style="fill:#feae2e; stroke:none;" d="M160 95L161 96L160 95z"/>
<path style="fill:#ffa103; stroke:none;" d="M161 95L162 96L161 95z"/>
<path style="fill:#fdbf61; stroke:none;" d="M148 96L149 97L148 96z"/>
<path style="fill:#fddaa5; stroke:none;" d="M152 96L154 98L152 96z"/>
<path style="fill:#ffa103; stroke:none;" d="M153 96L154 97L153 96z"/>
<path style="fill:#feae2e; stroke:none;" d="M154 96L155 97L154 96z"/>
<path style="fill:#fddaa5; stroke:none;" d="M155 96L156 97L155 96z"/>
<path style="fill:#fdbf61; stroke:none;" d="M158 96L159 97L158 96z"/>
<path style="fill:#ffa103; stroke:none;" d="M159 96L160 97L159 96z"/>
<path style="fill:#fdbf61; stroke:none;" d="M160 96L161 97L160 96z"/>
<path style="fill:#feae2e; stroke:none;" d="M128 97L129 98L128 97z"/>
<path style="fill:#fdfbf6; stroke:none;" d="M129 97C129.203 102.871 128.076 108.18 134 111C133.396 105.288 134.827 99.9409 129 97z"/>
<path style="fill:#fdbf61; stroke:none;" d="M131 97L132 98L131 97z"/>
<path style="fill:#fddaa5; stroke:none;" d="M149 97L149 130L150 130L149 97z"/>
<path style="fill:#feae2e; stroke:none;" d="M152 97L153 98L152 97z"/>
<path style="fill:#fdbf61; stroke:none;" d="M156 97L157 98L156 97z"/>
<path style="fill:#ffa103; stroke:none;" d="M157 97L153 99L153 100L158 98L157 97z"/>
<path style="fill:#feae2e; stroke:none;" d="M158 97L159 98L158 97z"/>
<path style="fill:#fddaa5; stroke:none;" d="M159 97L160 98L159 97z"/>
<path style="fill:#fdfbf6; stroke:none;" d="M160 97L153 101L153 102L161 98L160 97z"/>
<path style="fill:#fddaa5; stroke:none;" d="M161 97L161 100L162 100L161 97M128.333 98.6667L128.667 99.3333L128.333 98.6667M132 98L133 99L132 98M154 98L155 99L154 98M157 98L158 99L157 98z"/>
<path style="fill:#fdbf61; stroke:none;" d="M160 98L161 99L160 98z"/>
<path style="fill:#ffa103; stroke:none;" d="M161 98L162 99L161 98z"/>
<path style="fill:#fdbf61; stroke:none;" d="M133 99L134 100L133 99z"/>
<path style="fill:#fddaa5; stroke:none;" d="M152 99L153 100L152 99z"/>
<path style="fill:#fdbf61; stroke:none;" d="M155 99L156 100L155 99z"/>
<path style="fill:#fddaa5; stroke:none;" d="M158 99L159 100L158 99z"/>
<path style="fill:#ffa103; stroke:none;" d="M158 101L161 100L158 101z"/>
<path style="fill:#fdbf61; stroke:none;" d="M128 100L129 101L128 100z"/>
<path style="fill:#feae2e; stroke:none;" d="M152.667 100.333L153.333 100.667L152.667 100.333z"/>
<path style="fill:#fddaa5; stroke:none;" d="M156 100L157 101L156 100z"/>
<path style="fill:#feae2e; stroke:none;" d="M157.333 100.667L157.667 101.333L157.333 100.667z"/>
<path style="fill:#fdbf61; stroke:none;" d="M159 100L160 101L159 100M134 101L135 102L134 101z"/>
<path style="fill:#fddaa5; stroke:none;" d="M152 101L153 102L152 101z"/>
<path style="fill:#fdbf61; stroke:none;" d="M155 101L156 102L155 101z"/>
<path style="fill:#ffa103; stroke:none;" d="M156 101L153 103L153 104L157 102L156 101z"/>
<path style="fill:#fddaa5; stroke:none;" d="M158 101L159 102L158 101z"/>
<path style="fill:#fdfbf6; stroke:none;" d="M159 101L155 103L155 104L160 102L159 101z"/>
<path style="fill:#fddaa5; stroke:none;" d="M160 101L161 102L160 101z"/>
<path style="fill:#ffa103; stroke:none;" d="M161 101L155 105L155 106L161 101z"/>
<path style="fill:#fddaa5; stroke:none;" d="M162 101L163 102L162 101z"/>
<path style="fill:#feae2e; stroke:none;" d="M129.333 102.667L129.667 103.333L129.333 102.667z"/>
<path style="fill:#fddaa5; stroke:none;" d="M134 102L135 103L134 102M153 102L154 103L153 102M156 102L157 103L156 102z"/>
<path style="fill:#fdbf61; stroke:none;" d="M159 102L160 103L159 102z"/>
<path style="fill:#feae2e; stroke:none;" d="M161 102L162 103L161 102z"/>
<path style="fill:#fdbf61; stroke:none;" d="M134 103L135 104L134 103z"/>
<path style="fill:#feae2e; stroke:none;" d="M152 103L153 104L152 103z"/>
<path style="fill:#fddaa5; stroke:none;" d="M154 103L155 104L154 103M157 103L158 104L157 103M160 103L161 104L160 103M129 104L130 105L129 104M152 104L153 105L152 104M155 104L156 105L155 104z"/>
<path style="fill:#fdbf61; stroke:none;" d="M158 104L159 105L158 104z"/>
<path style="fill:#fdfbf6; stroke:none;" d="M154 107L154 108L161 105L154 107z"/>
<path style="fill:#fdbf61; stroke:none;" d="M161 104L162 105L161 104z"/>
<path style="fill:#feae2e; stroke:none;" d="M133 105L134 106L133 105M154.333 105.667L154.667 106.333L154.333 105.667z"/>
<path style="fill:#fdbf61; stroke:none;" d="M156 105L157 106L156 105z"/>
<path style="fill:#fddaa5; stroke:none;" d="M159 105L160 106L159 105z"/>
<path style="fill:#ffa103; stroke:none;" d="M159 107L162 106L159 107z"/>
<path style="fill:#fddaa5; stroke:none;" d="M128.333 106.667L128.667 107.333L128.333 106.667z"/>
<path style="fill:#fdbf61; stroke:none;" d="M133 106L134 107L133 106z"/>
<path style="fill:#fddaa5; stroke:none;" d="M152 106L154 108L152 106z"/>
<path style="fill:#ffa103; stroke:none;" d="M153 106L154 107L153 106z"/>
<path style="fill:#fddaa5; stroke:none;" d="M155 106L156 107L155 106M157 106L158 107L157 106z"/>
<path style="fill:#feae2e; stroke:none;" d="M158.333 106.667L158.667 107.333L158.333 106.667z"/>
<path style="fill:#fdbf61; stroke:none;" d="M160 106L161 107L160 106z"/>
<path style="fill:#fddaa5; stroke:none;" d="M133 107L134 108L133 107z"/>
<path style="fill:#fdbf61; stroke:none;" d="M152 107L153 108L152 107M156 107L157 108L156 107z"/>
<path style="fill:#ffa103; stroke:none;" d="M157 107L154 109L154 110L158 108L157 107z"/>
<path style="fill:#fddaa5; stroke:none;" d="M159 107L160 108L159 107z"/>
<path style="fill:#fdfbf6; stroke:none;" d="M160 107L153 111L153 112L161 108L160 107z"/>
<path style="fill:#fddaa5; stroke:none;" d="M161 107L162 108L161 107z"/>
<path style="fill:#fdbf61; stroke:none;" d="M128 108L129 109L128 108z"/>
<path style="fill:#fddaa5; stroke:none;" d="M154 108L155 109L154 108M157 108L158 109L157 108z"/>
<path style="fill:#fdbf61; stroke:none;" d="M160 108L161 109L160 108z"/>
<path style="fill:#ffa103; stroke:none;" d="M161 108L158 110L158 111L162 109L161 108z"/>
<path style="fill:#fddaa5; stroke:none;" d="M130 109L131 110L130 109z"/>
<path style="fill:#fdbf61; stroke:none;" d="M134 109L135 110L134 109z"/>
<path style="fill:#fddaa5; stroke:none;" d="M152 109L153 110L152 109z"/>
<path style="fill:#feae2e; stroke:none;" d="M153 109L152 111L153 109z"/>
<path style="fill:#fdbf61; stroke:none;" d="M155 109L156 110L155 109z"/>
<path style="fill:#fddaa5; stroke:none;" d="M158 109L159 110L158 109M161 109L162 110L161 109z"/>
<path style="fill:#feae2e; stroke:none;" d="M131 110L132 111L131 110z"/>
<path style="fill:#fddaa5; stroke:none;" d="M132 110L133 111L132 110M134 110L135 111L134 110z"/>
<path style="fill:#fdbf61; stroke:none;" d="M153 110L154 111L153 110z"/>
<path style="fill:#fddaa5; stroke:none;" d="M156 110L157 111L156 110z"/>
<path style="fill:#feae2e; stroke:none;" d="M157 110L158 111L157 110z"/>
<path style="fill:#fdbf61; stroke:none;" d="M159 110L160 111L159 110z"/>
<path style="fill:#feae2e; stroke:none;" d="M110 111L111 112L110 111z"/>
<path style="fill:#fdbf61; stroke:none;" d="M116 111L117 112L116 111M133 111L134 112L133 111z"/>
<path style="fill:#feae2e; stroke:none;" d="M134 111L135 112L134 111z"/>
<path style="fill:#fddaa5; stroke:none;" d="M152 111L153 112L152 111z"/>
<path style="fill:#fdbf61; stroke:none;" d="M155 111L156 112L155 111z"/>
<path style="fill:#ffa103; stroke:none;" d="M156 111L157 112L156 111z"/>
<path style="fill:#fdbf61; stroke:none;" d="M157 111L158 112L157 111z"/>
<path style="fill:#fdfbf6; stroke:none;" d="M153 114L153 115L160 112L153 114z"/>
<path style="fill:#fddaa5; stroke:none;" d="M160 111L161 112L160 111z"/>
<path style="fill:#ffa103; stroke:none;" d="M161 111L160 113L161 111z"/>
<path style="fill:#fddaa5; stroke:none;" d="M162 111L163 112L162 111z"/>
<path style="fill:#feae2e; stroke:none;" d="M111 112L112 113L111 112z"/>
<path style="fill:#fddaa5; stroke:none;" d="M112 112L113 113L112 112M117 112L118 113L117 112z"/>
<path style="fill:#feae2e; stroke:none;" d="M118 112L119 113L118 112z"/>
<path style="fill:#fdbf61; stroke:none;" d="M153 112L154 113L153 112z"/>
<path style="fill:#ffa103; stroke:none;" d="M154 112L153 114L154 112z"/>
<path style="fill:#feae2e; stroke:none;" d="M155 112L156 113L155 112z"/>
<path style="fill:#fddaa5; stroke:none;" d="M156 112L157 113L156 112z"/>
<path style="fill:#fdbf61; stroke:none;" d="M159 112L160 113L159 112M161 112L162 113L161 112M113 113L114 114L113 113z"/>
<path style="fill:#fddaa5; stroke:none;" d="M114 113L115 114L114 113M119 113L120 114L119 113z"/>
<path style="fill:#feae2e; stroke:none;" d="M120 113L121 114L120 113M152 113L153 114L152 113z"/>
<path style="fill:#fddaa5; stroke:none;" d="M154 113L155 114L154 113z"/>
<path style="fill:#fdbf61; stroke:none;" d="M157 113L158 114L157 113z"/>
<path style="fill:#ffa103; stroke:none;" d="M158 113L155 115L155 116L159 114L158 113z"/>
<path style="fill:#feae2e; stroke:none;" d="M159 113L160 114L159 113z"/>
<path style="fill:#fddaa5; stroke:none;" d="M160 113L161 114L160 113z"/>
<path style="fill:#fdbf61; stroke:none;" d="M115 114L116 115L115 114z"/>
<path style="fill:#fddaa5; stroke:none;" d="M121 114L122 115L121 114M152 114L153 115L152 114M155 114L156 115L155 114M158 114L160 116L158 114z"/>
<path style="fill:#fdfbf6; stroke:none;" d="M159.667 114.333L160.333 114.667L159.667 114.333z"/>
<path style="fill:#fdbf61; stroke:none;" d="M161 114L162 115L161 114z"/>
<path style="fill:#fddaa5; stroke:none;" d="M117 115L118 116L117 115z"/>
<path style="fill:#fdbf61; stroke:none;" d="M123 115L124 116L123 115z"/>
<path style="fill:#fddaa5; stroke:none;" d="M153 115L154 116L153 115z"/>
<path style="fill:#feae2e; stroke:none;" d="M154.333 115.667L154.667 116.333L154.333 115.667z"/>
<path style="fill:#fdbf61; stroke:none;" d="M156 115L157 116L156 115z"/>
<path style="fill:#fdfbf6; stroke:none;" d="M154 117L154 118L159 116L154 117z"/>
<path style="fill:#feae2e; stroke:none;" d="M160 115L161 116L160 115z"/>
<path style="fill:#ffa103; stroke:none;" d="M161 115L162 116L161 115z"/>
<path style="fill:#feae2e; stroke:none;" d="M118 116L119 117L118 116z"/>
<path style="fill:#fddaa5; stroke:none;" d="M119 116L120 117L119 116M124 116L125 117L124 116z"/>
<path style="fill:#feae2e; stroke:none;" d="M125 116L126 117L125 116z"/>
<path style="fill:#fdbf61; stroke:none;" d="M152 116L153 117L152 116z"/>
<path style="fill:#ffa103; stroke:none;" d="M153 116L154 117L153 116z"/>
<path style="fill:#fddaa5; stroke:none;" d="M155 116L156 117L155 116M157 116L158 117L157 116z"/>
<path style="fill:#feae2e; stroke:none;" d="M158.333 116.667L158.667 117.333L158.333 116.667z"/>
<path style="fill:#ffa103; stroke:none;" d="M159 116L160 117L159 116z"/>
<path style="fill:#fdbf61; stroke:none;" d="M160 116L161 117L160 116M120 117L121 118L120 117z"/>
<path style="fill:#fddaa5; stroke:none;" d="M126 117L127 118L126 117z"/>
<path style="fill:#feae2e; stroke:none;" d="M152 117L153 118L152 117z"/>
<path style="fill:#fddaa5; stroke:none;" d="M153 117L154 118L153 117z"/>
<path style="fill:#fdbf61; stroke:none;" d="M156 117L157 118L156 117z"/>
<path style="fill:#ffa103; stroke:none;" d="M157 117L153 119L153 120L158 118L157 117z"/>
<path style="fill:#fddaa5; stroke:none;" d="M159 117L160 118L159 117z"/>
<path style="fill:#fdfbf6; stroke:none;" d="M160 117L156 119L156 120L161 118L160 117z"/>
<path style="fill:#fddaa5; stroke:none;" d="M161 117L162 118L161 117z"/>
<path style="fill:#fdbf61; stroke:none;" d="M122 118L123 119L122 118M128 118L129 119L128 118z"/>
<path style="fill:#fddaa5; stroke:none;" d="M154 118L155 119L154 118M157 118L158 119L157 118z"/>
<path style="fill:#fdbf61; stroke:none;" d="M160 118L161 119L160 118z"/>
<path style="fill:#ffa103; stroke:none;" d="M161 118L156 121L156 122L162 119L161 118z"/>
<path style="fill:#fddaa5; stroke:none;" d="M124 119L125 120L124 119z"/>
<path style="fill:#fdbf61; stroke:none;" d="M130 119L131 120L130 119z"/>
<path style="fill:#fddaa5; stroke:none;" d="M152 119L153 120L152 119z"/>
<path style="fill:#fdbf61; stroke:none;" d="M155 119L156 120L155 119z"/>
<path style="fill:#fddaa5; stroke:none;" d="M158 119L159 120L158 119M161 119L162 120L161 119z"/>
<path style="fill:#feae2e; stroke:none;" d="M125 120L126 121L125 120z"/>
<path style="fill:#fddaa5; stroke:none;" d="M126 120L127 121L126 120M131 120L132 121L131 120z"/>
<path style="fill:#feae2e; stroke:none;" d="M152 120L153 121L152 120z"/>
<path style="fill:#fdbf61; stroke:none;" d="M153 120L154 121L153 120z"/>
<path style="fill:#fddaa5; stroke:none;" d="M156 120L157 121L156 120z"/>
<path style="fill:#fdbf61; stroke:none;" d="M159 120L160 121L159 120M127 121L128 122L127 121z"/>
<path style="fill:#fddaa5; stroke:none;" d="M133 121L134 122L133 121z"/>
<path style="fill:#feae2e; stroke:none;" d="M155.333 121.667L155.667 122.333L155.333 121.667z"/>
<path style="fill:#fdbf61; stroke:none;" d="M157 121L158 122L157 121z"/>
<path style="fill:#fdfbf6; stroke:none;" d="M153 124L153 125L160 122L153 124z"/>
<path style="fill:#fddaa5; stroke:none;" d="M160 121L161 122L160 121z"/>
<path style="fill:#ffa103; stroke:none;" d="M161 121L155 125L155 126L161 121z"/>
<path style="fill:#fddaa5; stroke:none;" d="M162 121L163 122L162 121M129 122L130 123L129 122z"/>
<path style="fill:#fdbf61; stroke:none;" d="M135 122L136 123L135 122M153 122L154 123L153 122z"/>
<path style="fill:#ffa103; stroke:none;" d="M154 122L153 124L154 122z"/>
<path style="fill:#fddaa5; stroke:none;" d="M156 122L157 123L156 122z"/>
<path style="fill:#feae2e; stroke:none;" d="M159 122L160 123L159 122M161 122L162 123L161 122z"/>
<path style="fill:#fddaa5; stroke:none;" d="M131 123L132 124L131 123M136 123L137 124L136 123z"/>
<path style="fill:#feae2e; stroke:none;" d="M137 123L138 124L137 123M152 123L153 124L152 123z"/>
<path style="fill:#fddaa5; stroke:none;" d="M154 123L155 124L154 123z"/>
<path style="fill:#fdbf61; stroke:none;" d="M157 123L158 124L157 123z"/>
<path style="fill:#fddaa5; stroke:none;" d="M160 123L161 124L160 123z"/>
<path style="fill:#feae2e; stroke:none;" d="M132 124L133 125L132 124z"/>
<path style="fill:#fddaa5; stroke:none;" d="M133 124L134 125L133 124M138 124L139 125L138 124z"/>
<path style="fill:#feae2e; stroke:none;" d="M139 124L140 125L139 124z"/>
<path style="fill:#fddaa5; stroke:none;" d="M152 124L153 125L152 124M155 124L156 125L155 124M158 124L159 127L160 127L158 124z"/>
<path style="fill:#fdfbf6; stroke:none;" d="M159.667 124.333L160.333 124.667L159.667 124.333z"/>
<path style="fill:#fdbf61; stroke:none;" d="M161 124L162 125L161 124M134 125L135 126L134 125z"/>
<path style="fill:#fddaa5; stroke:none;" d="M140 125L141 126L140 125M153 125L154 126L153 125z"/>
<path style="fill:#feae2e; stroke:none;" d="M154.333 125.667L154.667 126.333L154.333 125.667z"/>
<path style="fill:#fdbf61; stroke:none;" d="M156 125L157 126L156 125z"/>
<path style="fill:#fdfbf6; stroke:none;" d="M154 127L154 128L159 126L154 127z"/>
<path style="fill:#feae2e; stroke:none;" d="M160 125L161 126L160 125z"/>
<path style="fill:#fddaa5; stroke:none;" d="M161 125L162 126L161 125M136 126L137 127L136 126z"/>
<path style="fill:#fdbf61; stroke:none;" d="M142 126L143 127L142 126M152.333 126.667L152.667 127.333L152.333 126.667z"/>
<path style="fill:#ffa103; stroke:none;" d="M153 126L154 127L153 126z"/>
<path style="fill:#fddaa5; stroke:none;" d="M155 126L156 127L155 126M157 126L158 127L157 126z"/>
<path style="fill:#feae2e; stroke:none;" d="M158 126L159 127L158 126z"/>
<path style="fill:#fddaa5; stroke:none;" d="M164 126L165 127L164 126z"/>
<path style="fill:#feae2e; stroke:none;" d="M137 127L138 128L137 127z"/>
<path style="fill:#fddaa5; stroke:none;" d="M138 127L139 128L138 127M143 127L144 128L143 127z"/>
<path style="fill:#feae2e; stroke:none;" d="M144 127L145 128L144 127z"/>
<path style="fill:#fddaa5; stroke:none;" d="M153 127L154 128L153 127z"/>
<path style="fill:#fdbf61; stroke:none;" d="M156.667 127.333L157.333 127.667L156.667 127.333M163 127L164 128L163 127M139 128L140 129L139 128z"/>
<path style="fill:#fddaa5; stroke:none;" d="M145 128L146 129L145 128z"/>
<path style="fill:#feae2e; stroke:none;" d="M146 128L147 129L146 128z"/>
<path style="fill:#fddaa5; stroke:none;" d="M154.333 128.667L154.667 129.333L154.333 128.667z"/>
<path style="fill:#fdbf61; stroke:none;" d="M155 128L156 129L155 128z"/>
<path style="fill:#fddaa5; stroke:none;" d="M161 128L162 129L161 128z"/>
<path style="fill:#fdbf61; stroke:none;" d="M141 129L142 130L141 129z"/>
<path style="fill:#fddaa5; stroke:none;" d="M147 129L148 130L147 129M152.333 129.667L152.667 130.333L152.333 129.667z"/>
<path style="fill:#fdbf61; stroke:none;" d="M153 129L154 130L153 129z"/>
<path style="fill:#fddaa5; stroke:none;" d="M159 129L160 130L159 129z"/>
<path style="fill:#feae2e; stroke:none;" d="M160 129L161 130L160 129z"/>
<path style="fill:#fddaa5; stroke:none;" d="M143 130L144 131L143 130z"/>
<path style="fill:#fdbf61; stroke:none;" d="M158 130L159 131L158 130z"/>
<path style="fill:#feae2e; stroke:none;" d="M144 131L145 132L144 131z"/>
<path style="fill:#fddaa5; stroke:none;" d="M145 131L146 132L145 131z"/>
<path style="fill:#fdbf61; stroke:none;" d="M156 131L157 132L156 131M146 132L147 133L146 132z"/>
<path style="fill:#fddaa5; stroke:none;" d="M154 132L155 133L154 132z"/>
<path style="fill:#feae2e; stroke:none;" d="M155 132L156 133L155 132z"/>
<path style="fill:#fdbf61; stroke:none;" d="M148 133L149 134L148 133z"/>
<path style="fill:#fddaa5; stroke:none;" d="M152 133L153 134L152 133z"/>
<path style="fill:#feae2e; stroke:none;" d="M153 133L154 134L153 133M149 134L150 135L149 134z"/>
<path style="fill:#fddaa5; stroke:none;" d="M150 134L151 135L150 134z"/>
<path style="fill:#fdbf61; stroke:none;" d="M151 134L152 135L151 134z"/>
</svg>
